<svg class="rainbow-svg" viewBox="0 0 600 300" xmlns="http://www.w3.org/2000/svg">
  <defs>
    <filter id="cloudShadow" x="-50%" y="-50%" width="200%" height="200%">
      <feDropShadow dx="2" dy="4" stdDeviation="4" flood-color="#000000" flood-opacity="0.2" />
    </filter>
    <style>
      .arc {
      fill: none;
      stroke-width: 14;
      stroke-dasharray: 800;
      stroke-dashoffset: 800;
      opacity: 0.7;
      }

      .arc1 { stroke: #ff9aa2; animation-delay: 0s; }
      .arc2 { stroke: #ffdac1; animation-delay: 0.1s; }
      .arc3 { stroke: #fcd5ce; animation-delay: 0.2s; }
      .arc4 { stroke: #c5f2e0; animation-delay: 0.3s; }
      .arc5 { stroke: #b5ead7; animation-delay: 0.4s; }
      .arc6 { stroke: #c7ceea; animation-delay: 0.5s; }
      .arc7 { stroke: #d0bdf4; animation-delay: 0.6s; }

      @keyframes drawArc {
      to { stroke-dashoffset: 0; }
      }
    </style>
  </defs>

  <!-- Радуга -->
  <g class="rainbow-group">
    <path class="arc arc1" d="M100,250 A200,200 0 0,1 500,250" />
    <path class="arc arc2" d="M110,250 A190,190 0 0,1 490,250" />
    <path class="arc arc3" d="M120,250 A180,180 0 0,1 480,250" />
    <path class="arc arc4" d="M130,250 A170,170 0 0,1 470,250" />
    <path class="arc arc5" d="M140,250 A160,160 0 0,1 460,250" />
    <path class="arc arc6" d="M150,250 A150,150 0 0,1 450,250" />
    <path class="arc arc7" d="M160,250 A140,140 0 0,1 440,250" />
  </g>

  <!-- Левое облако -->
  <g filter="url(#cloudShadow)">
    <ellipse cx="110" cy="250" rx="40" ry="25" fill="white" />
    <ellipse cx="130" cy="240" rx="35" ry="20" fill="white" />
    <ellipse cx="150" cy="255" rx="45" ry="25" fill="white" />
  </g>

  <!-- Правое облако -->
  <g filter="url(#cloudShadow)">
    <ellipse cx="490" cy="250" rx="40" ry="25" fill="white" />
    <ellipse cx="470" cy="240" rx="35" ry="20" fill="white" />
    <ellipse cx="450" cy="255" rx="45" ry="25" fill="white" />
  </g>
</svg>